HIERARCHY
ROOT m_avg_root
{
	OFFSET 0.000000 0.000000 0.000000
	CHANNELS 6 Xposition Yposition Zposition Xrotation Yrotation Zrotation
	JOINT m_avg_Pelvis
	{
		OFFSET -0.002174 0.972724 0.028584
		CHANNELS 6 Xposition Yposition Zposition Xrotation Yrotation Zrotation
		JOINT m_avg_L_Hip
		{
			OFFSET 0.058581 -0.082280 -0.017664
			CHANNELS 6 Xposition Yposition Zposition Xrotation Yrotation Zrotation
			JOINT m_avg_L_Knee
			{
				OFFSET 0.043451 -0.386469 0.008037
				CHANNELS 6 Xposition Yposition Zposition Xrotation Yrotation Zrotation
				JOINT m_avg_L_Ankle
				{
					OFFSET -0.014790 -0.426874 -0.037428
					CHANNELS 6 Xposition Yposition Zposition Xrotation Yrotation Zrotation
					JOINT m_avg_L_Foot
					{
						OFFSET 0.041054 -0.060286 0.122042
						CHANNELS 6 Xposition Yposition Zposition Xrotation Yrotation Zrotation
						End Site
						{
							OFFSET 0.000000 0.142177 0.000000
						}
					}
				}
			}
		}
		JOINT m_avg_R_Hip
		{
			OFFSET -0.060310 -0.090513 -0.013543
			CHANNELS 6 Xposition Yposition Zposition Xrotation Yrotation Zrotation
			JOINT m_avg_R_Knee
			{
				OFFSET -0.043257 -0.383688 -0.004843
				CHANNELS 6 Xposition Yposition Zposition Xrotation Yrotation Zrotation
				JOINT m_avg_R_Ankle
				{
					OFFSET 0.019056 -0.420046 -0.034562
					CHANNELS 6 Xposition Yposition Zposition Xrotation Yrotation Zrotation
					JOINT m_avg_R_Foot
					{
						OFFSET -0.034840 -0.062106 0.130323
						CHANNELS 6 Xposition Yposition Zposition Xrotation Yrotation Zrotation
						End Site
						{
							OFFSET 0.000000 0.148510 0.000000
						}
					}
				}
			}
		}
		JOINT m_avg_Spine1
		{
			OFFSET 0.004439 0.124404 -0.038385
			CHANNELS 6 Xposition Yposition Zposition Xrotation Yrotation Zrotation
			JOINT m_avg_Spine2
			{
				OFFSET 0.004488 0.137956 0.026820
				CHANNELS 6 Xposition Yposition Zposition Xrotation Yrotation Zrotation
				JOINT m_avg_Spine3
				{
					OFFSET -0.002265 0.056032 0.002855
					CHANNELS 6 Xposition Yposition Zposition Xrotation Yrotation Zrotation
					JOINT m_avg_Neck
					{
						OFFSET -0.013390 0.211635 -0.033468
						CHANNELS 6 Xposition Yposition Zposition Xrotation Yrotation Zrotation
						JOINT m_avg_Head
						{
							OFFSET 0.010113 0.088937 0.050410
							CHANNELS 6 Xposition Yposition Zposition Xrotation Yrotation Zrotation
							End Site
							{
								OFFSET 0.000000 0.102729 0.000000
							}
						}
					}
					JOINT m_avg_L_Collar
					{
						OFFSET 0.071702 0.114000 -0.018898
						CHANNELS 6 Xposition Yposition Zposition Xrotation Yrotation Zrotation
						JOINT m_avg_L_Shoulder
						{
							OFFSET 0.122921 0.045205 -0.019046
							CHANNELS 6 Xposition Yposition Zposition Xrotation Yrotation Zrotation
							JOINT m_avg_L_Elbow
							{
								OFFSET 0.255332 -0.015649 -0.022946
								CHANNELS 6 Xposition Yposition Zposition Xrotation Yrotation Zrotation
								JOINT m_avg_L_Wrist
								{
									OFFSET 0.265709 0.012698 -0.007375
									CHANNELS 6 Xposition Yposition Zposition Xrotation Yrotation Zrotation
									JOINT m_avg_L_Hand
									{
										OFFSET 0.086691 -0.010636 -0.015594
										CHANNELS 6 Xposition Yposition Zposition Xrotation Yrotation Zrotation
										End Site
										{
											OFFSET 0.000000 0.088722 0.000000
										}
									}
								}
							}
						}
					}
					JOINT m_avg_R_Collar
					{
						OFFSET -0.082954 0.112472 -0.023707
						CHANNELS 6 Xposition Yposition Zposition Xrotation Yrotation Zrotation
						JOINT m_avg_R_Shoulder
						{
							OFFSET -0.113228 0.046853 -0.008472
							CHANNELS 6 Xposition Yposition Zposition Xrotation Yrotation Zrotation
							JOINT m_avg_R_Elbow
							{
								OFFSET -0.260127 -0.014369 -0.031269
								CHANNELS 6 Xposition Yposition Zposition Xrotation Yrotation Zrotation
								JOINT m_avg_R_Wrist
								{
									OFFSET -0.269108 0.006794 -0.006027
									CHANNELS 6 Xposition Yposition Zposition Xrotation Yrotation Zrotation
									JOINT m_avg_R_Hand
									{
										OFFSET -0.088754 -0.008652 -0.010107
										CHANNELS 6 Xposition Yposition Zposition Xrotation Yrotation Zrotation
										End Site
										{
											OFFSET 0.000000 0.089745 0.000000
										}
									}
								}
							}
						}
					}
				}
			}
		}
	}
}
MOTION
Frames: 5
Frame Time: 0.041667
-0.126365 -0.081842 2.875351 -0.000000 0.000000 -0.000000 -0.128538 0.890882 2.903934 179.395629 -11.190644 1.974054 0.058581 -0.082280 -0.017664 -3.369073 -6.569728 13.549325 0.043451 -0.386469 0.008037 35.981611 -13.257343 2.876394 -0.014791 -0.426874 -0.037428 7.692515 -1.271380 -15.133548 0.041054 -0.060286 0.122042 -17.036228 1.475599 19.251901 -0.060310 -0.090513 -0.013542 -16.195871 2.167129 -17.556182 -0.043257 -0.383688 -0.004843 33.068928 8.010937 2.381767 0.019055 -0.420046 -0.034562 -0.557852 -3.763593 17.106298 -0.034840 -0.062105 0.130323 -12.874159 3.148907 -18.340281 0.004440 0.124404 -0.038385 11.999279 0.680216 3.449313 0.004488 0.137956 0.026820 -2.035290 0.807022 -0.760753 -0.002265 0.056032 0.002855 7.492801 0.317423 -0.584877 -0.013390 0.211636 -0.033468 -9.113402 7.723625 -3.044592 0.010113 0.088937 0.050409 8.993176 6.139150 -4.208501 0.071702 0.114000 -0.018898 4.063551 -3.023840 -13.132390 0.122922 0.045205 -0.019046 6.721531 -6.771490 -61.932699 0.255332 -0.015649 -0.022946 7.218491 -49.291720 22.880116 0.265709 0.012698 -0.007374 -8.522061 -3.158484 7.933475 0.086691 -0.010636 -0.015594 -7.304171 -5.485954 -12.290469 -0.082954 0.112472 -0.023707 -8.790028 3.888366 8.597156 -0.113228 0.046853 -0.008472 -3.064929 2.900440 39.543978 -0.260127 -0.014369 -0.031269 -6.843885 43.580394 -21.653829 -0.269109 0.006794 -0.006027 -7.254385 4.917267 -9.954138 -0.088754 -0.008652 -0.010108 -7.028848 6.253209 14.284642 
-0.119031 -0.108116 2.888096 -0.000000 0.000000 -0.000000 -0.121205 0.864608 2.916680 179.879056 -9.799798 2.296213 0.058581 -0.082280 -0.017664 -7.563711 -6.818575 13.060023 0.043451 -0.386469 0.008036 33.677098 -12.204371 2.343699 -0.014790 -0.426875 -0.037429 9.142119 -1.044694 -14.328101 0.041054 -0.060286 0.122042 -16.131223 2.555276 18.372668 -0.060310 -0.090513 -0.013543 -18.358703 3.652305 -15.931819 -0.043257 -0.383688 -0.004842 30.998715 7.464698 1.443692 0.019056 -0.420046 -0.034562 2.058819 -3.854965 16.335512 -0.034840 -0.062105 0.130323 -11.549213 2.874068 -17.881398 0.004439 0.124403 -0.038386 13.072200 0.757031 3.306866 0.004488 0.137956 0.026820 -2.275578 0.659034 -0.714607 -0.002265 0.056032 0.002855 5.256819 0.589652 0.400839 -0.013390 0.211636 -0.033467 -6.940850 7.147468 -3.404216 0.010113 0.088937 0.050409 10.330848 5.427579 -4.094543 0.071703 0.113999 -0.018898 2.352240 -6.032633 -13.698697 0.122922 0.045205 -0.019045 3.595143 -10.480060 -59.360361 0.255332 -0.015649 -0.022946 10.571410 -51.776867 25.745346 0.265710 0.012698 -0.007375 -7.879108 -3.478389 8.470330 0.086690 -0.010636 -0.015594 -7.155227 -5.296925 -12.239299 -0.082953 0.112472 -0.023707 -10.099055 7.056545 10.101273 -0.113228 0.046853 -0.008471 -5.648449 9.665554 42.495924 -0.260128 -0.014369 -0.031269 -0.492569 49.750900 -25.710143 -0.269108 0.006794 -0.006027 -6.663264 5.075572 -10.069740 -0.088754 -0.008651 -0.010107 -7.061587 6.213139 14.271995 
-0.106477 -0.138914 2.901142 -0.000000 0.000000 -0.000000 -0.108651 0.833810 2.929726 180.431946 -8.379377 2.560969 0.058581 -0.082280 -0.017664 -11.873428 -6.931811 12.120942 0.043451 -0.386469 0.008037 31.385501 -11.134011 1.827580 -0.014790 -0.426874 -0.037429 10.536679 -0.821001 -13.542193 0.041054 -0.060286 0.122043 -15.222393 3.612093 17.478399 -0.060310 -0.090513 -0.013543 -20.244351 4.852134 -13.974343 -0.043257 -0.383688 -0.004843 29.159830 7.031026 0.795819 0.019056 -0.420046 -0.034561 4.592403 -3.888989 15.594857 -0.034840 -0.062106 0.130323 -10.242543 2.644745 -17.412341 0.004439 0.124404 -0.038385 14.082603 0.862625 3.112994 0.004488 0.137956 0.026820 -2.574487 0.548305 -0.693423 -0.002265 0.056033 0.002855 2.622054 1.006102 1.276553 -0.013390 0.211635 -0.033468 -5.039895 6.639021 -3.692783 0.010113 0.088938 0.050410 11.512305 4.769120 -3.956485 0.071702 0.113999 -0.018898 0.569654 -9.040175 -14.457941 0.122922 0.045205 -0.019047 0.395952 -14.569246 -57.431926 0.255332 -0.015649 -0.022947 14.361193 -54.242436 28.890406 0.265709 0.012698 -0.007375 -7.231603 -3.789794 9.001560 0.086690 -0.010636 -0.015594 -7.004229 -5.101705 -12.181880 -0.082954 0.112472 -0.023708 -11.503820 10.213911 11.783872 -0.113228 0.046853 -0.008472 -8.670618 16.458558 46.420664 -0.260128 -0.014369 -0.031269 7.573607 55.773009 -31.416124 -0.269108 0.006794 -0.006027 -6.068370 5.232506 -10.176924 -0.088753 -0.008652 -0.010107 -7.088909 6.162456 14.248220 
-0.089555 -0.160710 2.914792 -0.000000 0.000000 -0.000000 -0.091729 0.812014 2.943376 181.665765 -6.870985 3.006779 0.058581 -0.082280 -0.017664 -15.944609 -6.840958 10.585974 0.043452 -0.386469 0.008036 29.181666 -10.052076 1.350202 -0.014790 -0.426874 -0.037428 11.762588 -0.577798 -12.766440 0.041054 -0.060286 0.122043 -14.353344 4.630118 16.565779 -0.060310 -0.090513 -0.013542 -21.404242 5.512315 -10.623841 -0.043257 -0.383688 -0.004843 27.819424 6.902413 1.049579 0.019056 -0.420046 -0.034562 6.835965 -3.617411 14.938365 -0.034840 -0.062106 0.130323 -9.005035 2.540165 -16.919251 0.004440 0.124403 -0.038385 15.138605 0.977815 2.775247 0.004488 0.137956 0.026820 -2.865687 0.464007 -0.834713 -0.002265 0.056033 0.002855 -0.182954 1.527639 1.118198 -0.013390 0.211635 -0.033467 -3.743135 6.220279 -3.817964 0.010113 0.088937 0.050409 12.313931 4.166587 -3.765931 0.071702 0.114000 -0.018898 -1.289984 -12.071828 -15.583480 0.122921 0.045205 -0.019046 -2.990737 -19.204733 -56.860072 0.255332 -0.015649 -0.022947 18.553248 -56.618795 31.980257 0.265709 0.012698 -0.007375 -6.573780 -4.092207 9.519335 0.086691 -0.010636 -0.015594 -6.849995 -4.903172 -12.106287 -0.082954 0.112472 -0.023707 -12.969173 13.362938 13.635692 -0.113228 0.046853 -0.008472 -12.062842 23.268115 51.314979 -0.260128 -0.014369 -0.031269 18.126899 61.344265 -39.297859 -0.269108 0.006794 -0.006027 -5.464640 5.388162 -10.267740 -0.088753 -0.008651 -0.010107 -7.105192 6.097067 14.198092 
-0.076889 -0.174765 2.928926 -0.000000 0.000000 -0.000000 -0.079062 0.797959 2.957510 183.584980 -5.658226 3.681510 0.058581 -0.082280 -0.017664 -19.534411 -6.534778 8.629705 0.043451 -0.386470 0.008037 27.120075 -8.966579 0.943929 -0.014790 -0.426874 -0.037427 12.684005 -0.258611 -11.984448 0.041054 -0.060286 0.122043 -13.564704 5.596724 15.637069 -0.060310 -0.090513 -0.013542 -21.964760 5.654967 -6.517468 -0.043257 -0.383688 -0.004843 26.932640 6.783708 1.807807 0.019056 -0.420045 -0.034561 8.655385 -3.358491 14.291711 -0.034840 -0.062106 0.130323 -7.894303 2.506963 -16.396202 0.004439 0.124404 -0.038385 16.189655 0.944077 2.452558 0.004488 0.137956 0.026820 -3.226320 0.258117 -1.095996 -0.002265 0.056032 0.002855 -3.613524 1.424383 -0.080712 -0.013390 0.211636 -0.033467 -3.287207 6.072494 -3.942823 0.010113 0.088937 0.050410 12.574414 3.697194 -3.638049 0.071702 0.114000 -0.018898 -3.237054 -15.067906 -17.017589 0.122922 0.045205 -0.019046 -6.681886 -24.234700 -57.577559 0.255332 -0.015649 -0.022947 23.417631 -59.082427 35.370305 0.265709 0.012698 -0.007375 -5.908258 -4.388210 10.010063 0.086690 -0.010636 -0.015594 -6.693665 -4.701287 -12.013830 -0.082954 0.112472 -0.023708 -14.509291 16.285616 15.466986 -0.113228 0.046853 -0.008472 -15.697839 29.223460 55.699663 -0.260127 -0.014370 -0.031269 31.621484 65.830354 -50.449386 -0.269109 0.006794 -0.006026 -4.855281 5.538240 -10.345513 -0.088754 -0.008652 -0.010107 -7.115023 6.020118 14.125641 
